
<svg xmlns="http://www.w3.org/2000/svg" xmlns:xlink="http://www.w3.org/1999/xlink" version="1.1" width="1080" height="1080" viewBox="0 0 1080 1080" xml:space="preserve">
<desc>Created with Fabric.js 5.2.4</desc>
<defs>
</defs>
<rect x="0" y="0" width="100%" height="100%" fill="transparent"></rect>
<g transform="matrix(1 0 0 1 540 540)" id="c0719e97-8ac4-4ccd-b37e-038c7a21b71c"  >
</g>
<g transform="matrix(1 0 0 1 540 540)" id="c00bb9a7-5e34-4501-a976-1008ab1d92f7"  >
<rect style="stroke: none; stroke-width: 1; stroke-dasharray: none; stroke-linecap: butt; stroke-dashoffset: 0; stroke-linejoin: miter; stroke-miterlimit: 4; fill: rgb(255,255,255); fill-rule: nonzero; opacity: 1; visibility: hidden;" vector-effect="non-scaling-stroke"  x="-540" y="-540" rx="0" ry="0" width="1080" height="1080" />
</g>
<g transform="matrix(3.18 0 0 3.18 561.24 399.7)"  >
<rect style="stroke: none; stroke-width: 2; stroke-dasharray: none; stroke-linecap: butt; stroke-dashoffset: 0; stroke-linejoin: miter; stroke-miterlimit: 4; fill: rgb(51,51,51); fill-opacity: 0; fill-rule: nonzero; opacity: 1;" vector-effect="non-scaling-stroke"  x="-30" y="-25.99" rx="0" ry="0" width="60" height="51.98" />
</g>
<g transform="matrix(5.84 0 0 5.84 403.47 401.27)"  >
<path style="stroke: none; stroke-width: 1; stroke-dasharray: none; stroke-linecap: butt; stroke-dashoffset: 0; stroke-linejoin: miter; stroke-miterlimit: 4; fill: rgb(247,107,10); fill-rule: evenodd; opacity: 1;" vector-effect="non-scaling-stroke"  transform=" translate(-34.19, -49.67)" d="M 57.36 0 L 0 99.35 L 22.04 99.35 L 68.38 19.08999999999999 L 57.36 0 z" stroke-linecap="round" />
</g>
<g transform="matrix(5.84 0 0 5.84 639.73 488.79)"  >
<path style="stroke: none; stroke-width: 1; stroke-dasharray: none; stroke-linecap: butt; stroke-dashoffset: 0; stroke-linejoin: miter; stroke-miterlimit: 4; fill: rgb(51,51,51); fill-rule: evenodd; opacity: 1;" vector-effect="non-scaling-stroke"  transform=" translate(-74.69, -64.69)" d="M 34.69 99.35 L 56.76 99.35 L 85.74 49.14999999999999 L 74.7 30.04 L 34.69 99.35 z M 81.83 80.66999999999999 L 92.61 99.35 L 114.69 99.35 L 92.59 61.06999999999999 L 81.83 80.66999999999999 z" stroke-linecap="round" />
</g>
<g transform="matrix(5.84 0 0 5.84 647 654.46)"  >
<path style="stroke: none; stroke-width: 1; stroke-dasharray: none; stroke-linecap: butt; stroke-dashoffset: 0; stroke-linejoin: miter; stroke-miterlimit: 4; fill: rgb(247,107,10); fill-rule: evenodd; opacity: 1;" vector-effect="non-scaling-stroke"  transform=" translate(-75.97, -93.13)" d="M 82.17 93.13 C 82.1699185696462 95.650287690147 80.64899720423924 97.92142457603317 78.31859816693459 98.88115910946782 C 75.98819912962995 99.84089364290246 73.3089891009175 99.2995082199081 71.5340827735373 97.51021853493164 C 69.75917644615711 95.72092884995517 69.23943227521755 93.03743661949159 70.2179439525496 90.71485939901811 C 71.19645562988165 88.39228217854465 73.47979373889129 86.88974045395648 76 86.91 C 79.43292793513139 86.91550590947007 82.21449409052993 89.6970720648686 82.22 93.13" stroke-linecap="round" />
</g>
<g transform="matrix(5.84 0 0 5.84 540.02 807.16)"  >
<path style="stroke: none; stroke-width: 1; stroke-dasharray: none; stroke-linecap: butt; stroke-dashoffset: 0; stroke-linejoin: miter; stroke-miterlimit: 4; fill: rgb(51,51,51); fill-rule: nonzero; opacity: 1;" vector-effect="non-scaling-stroke"  transform=" translate(-88.33, 13.48)" d="M 26.45 0 L 14.22 -27.27 L 11.92 -27.27 L -0.31 0 L 1.95 0 L 4.91 -6.7 L 21.19 -6.7 L 24.19 0 Z M 5.73 -8.65 L 13.05 -25.25 L 20.38 -8.65 Z M 29.18 -19.25 L 29.18 0 L 31.09 0 L 31.09 -11.22 C 31.09 -14.73 33.86 -17.61 37.44 -17.65 C 38.57 -17.65 39.7 -17.38 40.71 -16.75 L 41.57 -18.31 C 40.29 -19.09 38.88 -19.48 37.44 -19.44 C 34.99 -19.44 32.26 -18.43 31.05 -15.82 L 30.97 -19.25 Z M 61.05 -19.25 L 61.05 -15.04 C 59.45 -18.04 56.3 -19.48 53.18 -19.48 C 47.81 -19.48 43.4 -15.51 43.4 -9.62 C 43.4 -3.74 47.81 0.31 53.18 0.31 C 56.3 0.31 59.18 -1.09 61.05 -4.09 L 61.05 0 L 62.96 0 C 62.96 -6.43 62.96 -12.82 62.96 -19.25 Z M 53.18 -17.65 C 63.9 -17.65 63.9 -1.56 53.18 -1.56 C 48.82 -1.56 45.31 -4.79 45.31 -9.62 C 45.31 -14.45 48.82 -17.65 53.18 -17.65 Z M 76.83 -17.73 C 81.27 -17.73 84.7 -14.45 84.7 -9.66 C 84.7 -4.87 81.35 -1.56 76.83 -1.56 C 72.51 -1.56 68.96 -4.29 68.96 -9.62 C 68.96 -15.04 72.51 -17.73 76.83 -17.73 Z M 84.74 -27.27 L 84.74 -15.04 C 83.18 -18.16 80.06 -19.56 76.75 -19.56 C 71.38 -19.56 67.09 -15.97 67.09 -9.62 C 67.09 -3.23 71.34 0.31 76.71 0.31 C 79.99 0.31 83.14 -1.32 84.74 -4.25 L 84.74 0 L 86.61 0 L 86.61 -27.27 Z M 101.22 0.27 C 104.3 0.27 107.65 -0.97 109.52 -3.43 L 108.16 -4.52 C 106.71 -2.61 103.75 -1.6 101.22 -1.6 C 97.25 -1.6 93.78 -4.21 93.39 -8.73 L 110.73 -8.73 C 111.47 -16.25 106.64 -19.56 101.22 -19.56 C 95.81 -19.56 91.44 -15.39 91.44 -9.62 C 91.44 -3.51 95.81 0.27 101.22 0.27 Z M 93.39 -10.4 C 93.82 -15.12 97.25 -17.81 101.22 -17.81 C 105.86 -17.81 108.97 -15.16 109.01 -10.4 Z M 145.71 0 L 145.71 -11.53 C 145.71 -16.32 142.36 -19.64 137.65 -19.64 C 134.69 -19.64 131.69 -18.04 130.52 -14.88 C 129.39 -18.31 126.31 -19.64 123.39 -19.64 C 120.9 -19.64 118.44 -18.58 117.12 -16.05 L 117.08 -19.25 L 115.29 -19.25 L 115.29 0 L 117.19 0 L 117.19 -11.42 C 117.19 -15.12 119.69 -17.81 123.35 -17.81 C 127.01 -17.81 129.55 -15.12 129.55 -11.42 L 129.55 0 L 131.45 0 L 131.45 -11.42 C 131.45 -15.12 133.99 -17.84 137.65 -17.84 C 141.31 -17.84 143.81 -15.23 143.81 -11.53 L 143.81 0 Z M 153 -19.32 L 153 0 L 151.09 0 L 151.09 -19.32 Z M 150.55 -25.52 C 150.55 -23.49 153.62 -23.49 153.62 -25.52 C 153.62 -27.55 150.55 -27.55 150.55 -25.52 Z M 175.05 -19.25 L 175.05 -15.04 C 173.45 -18.04 170.3 -19.48 167.18 -19.48 C 161.81 -19.48 157.4 -15.51 157.4 -9.62 C 157.4 -3.74 161.81 0.31 167.18 0.31 C 170.3 0.31 173.18 -1.09 175.05 -4.09 L 175.05 0 L 176.96 0 C 176.96 -6.43 176.96 -12.82 176.96 -19.25 Z M 167.18 -17.65 C 177.9 -17.65 177.9 -1.56 167.18 -1.56 C 162.82 -1.56 159.31 -4.79 159.31 -9.62 C 159.31 -14.45 162.82 -17.65 167.18 -17.65 Z" stroke-linecap="round" />
</g>
<g transform="matrix(3.18 0 0 3.18 276.2 770.05)"  >
<rect style="stroke: none; stroke-width: 1; stroke-dasharray: none; stroke-linecap: butt; stroke-dashoffset: 0; stroke-linejoin: miter; stroke-miterlimit: 4; fill: rgb(51,51,51); fill-rule: nonzero; opacity: 1; visibility: hidden;" vector-effect="non-scaling-stroke"  x="0" y="-50" rx="0" ry="0" width="0" height="100" />
</g>
<g transform="matrix(3.18 0 0 3.18 855.59 770.05)"  >
<rect style="stroke: none; stroke-width: 1; stroke-dasharray: none; stroke-linecap: butt; stroke-dashoffset: 0; stroke-linejoin: miter; stroke-miterlimit: 4; fill: rgb(51,51,51); fill-rule: nonzero; opacity: 1; visibility: hidden;" vector-effect="non-scaling-stroke"  x="0" y="-50" rx="0" ry="0" width="0" height="100" />
</g>
<g transform="matrix(5.84 0 0 5.84 540 945.64)"  >
<path style="stroke: none; stroke-width: 1; stroke-dasharray: none; stroke-linecap: butt; stroke-dashoffset: 0; stroke-linejoin: miter; stroke-miterlimit: 4; fill: rgb(51,51,51); fill-rule: nonzero; opacity: 1;" vector-effect="non-scaling-stroke"  transform=" translate(-89.73, 3.83)" d="M 4.3 -3.11 L 2.01 -3.11 L 2.37 -4.28 C 2.51 -4.71 2.64 -5.13 2.76 -5.56 C 2.89 -5.98 3.01 -6.41 3.13 -6.86 L 3.17 -6.86 C 3.3 -6.41 3.42 -5.98 3.55 -5.56 C 3.67 -5.13 3.8 -4.71 3.94 -4.28 Z M 4.55 -2.33 L 5.27 0 L 6.31 0 L 3.72 -7.65 L 2.62 -7.65 L 0.03 0 L 1.03 0 L 1.76 -2.33 Z M 6.83 -3.83 C 6.83 -3.2 6.92 -2.65 7.08 -2.15 C 7.25 -1.66 7.48 -1.24 7.78 -0.9 C 8.08 -0.57 8.44 -0.31 8.85 -0.13 C 9.25 0.05 9.7 0.14 10.18 0.14 C 10.67 0.14 11.11 0.04 11.49 -0.15 C 11.87 -0.35 12.21 -0.62 12.51 -0.97 L 11.97 -1.56 C 11.72 -1.29 11.45 -1.08 11.18 -0.93 C 10.9 -0.79 10.58 -0.71 10.2 -0.71 C 9.84 -0.71 9.51 -0.79 9.22 -0.93 C 8.93 -1.08 8.68 -1.29 8.48 -1.56 C 8.28 -1.83 8.12 -2.16 8.01 -2.55 C 7.89 -2.93 7.84 -3.37 7.84 -3.85 C 7.84 -4.32 7.9 -4.75 8.01 -5.13 C 8.13 -5.51 8.29 -5.84 8.5 -6.1 C 8.71 -6.37 8.96 -6.58 9.26 -6.72 C 9.55 -6.87 9.89 -6.94 10.25 -6.94 C 10.58 -6.94 10.86 -6.87 11.11 -6.75 C 11.35 -6.62 11.58 -6.45 11.78 -6.23 L 12.33 -6.85 C 12.1 -7.09 11.81 -7.31 11.46 -7.5 C 11.11 -7.69 10.71 -7.79 10.24 -7.79 C 9.75 -7.79 9.3 -7.7 8.88 -7.52 C 8.46 -7.33 8.1 -7.07 7.8 -6.73 C 7.5 -6.39 7.26 -5.97 7.09 -5.48 C 6.92 -4.99 6.83 -4.44 6.83 -3.83 Z M 17.19 -3.11 L 14.89 -3.11 L 15.25 -4.28 C 15.39 -4.71 15.53 -5.13 15.65 -5.56 C 15.77 -5.98 15.9 -6.41 16.01 -6.86 L 16.06 -6.86 C 16.18 -6.41 16.31 -5.98 16.43 -5.56 C 16.56 -5.13 16.69 -4.71 16.83 -4.28 Z M 17.43 -2.33 L 18.16 0 L 19.2 0 L 16.61 -7.65 L 15.51 -7.65 L 12.92 0 L 13.91 0 L 14.65 -2.33 Z M 20.28 -7.65 L 20.28 0 L 22.24 0 C 22.81 0 23.32 -0.09 23.77 -0.26 C 24.21 -0.44 24.58 -0.69 24.89 -1.02 C 25.19 -1.35 25.42 -1.76 25.57 -2.23 C 25.73 -2.71 25.81 -3.25 25.81 -3.86 C 25.81 -5.08 25.5 -6.02 24.89 -6.67 C 24.27 -7.32 23.37 -7.65 22.19 -7.65 Z M 22.12 -0.79 L 21.25 -0.79 L 21.25 -6.86 L 22.12 -6.86 C 23.02 -6.86 23.69 -6.6 24.13 -6.09 C 24.58 -5.57 24.8 -4.83 24.8 -3.86 C 24.8 -2.89 24.58 -2.13 24.13 -1.6 C 23.69 -1.06 23.02 -0.79 22.12 -0.79 Z M 27.45 -7.65 L 27.45 0 L 31.98 0 L 31.98 -0.83 L 28.42 -0.83 L 28.42 -3.6 L 31.32 -3.6 L 31.32 -4.43 L 28.42 -4.43 L 28.42 -6.83 L 31.86 -6.83 L 31.86 -7.65 Z M 33.6 -7.65 L 33.6 0 L 34.5 0 L 34.5 -4.21 C 34.5 -4.55 34.48 -4.93 34.45 -5.34 C 34.42 -5.75 34.39 -6.13 34.37 -6.47 L 34.41 -6.47 L 35.02 -4.77 L 36.5 -0.77 L 37.05 -0.77 L 38.52 -4.77 L 39.14 -6.47 L 39.18 -6.47 C 39.15 -6.13 39.12 -5.75 39.1 -5.34 C 39.07 -4.93 39.06 -4.55 39.06 -4.21 L 39.06 0 L 39.98 0 L 39.98 -7.65 L 38.83 -7.65 L 37.36 -3.55 L 36.83 -1.98 L 36.78 -1.98 L 36.22 -3.55 L 34.74 -7.65 Z M 42.08 -7.65 L 42.08 0 L 43.04 0 L 43.04 -7.65 Z M 44.7 -3.83 C 44.7 -3.2 44.78 -2.65 44.95 -2.15 C 45.12 -1.66 45.35 -1.24 45.65 -0.9 C 45.95 -0.57 46.3 -0.31 46.71 -0.13 C 47.12 0.05 47.56 0.14 48.05 0.14 C 48.54 0.14 48.97 0.04 49.35 -0.15 C 49.73 -0.35 50.08 -0.62 50.38 -0.97 L 49.83 -1.56 C 49.58 -1.29 49.32 -1.08 49.04 -0.93 C 48.77 -0.79 48.44 -0.71 48.07 -0.71 C 47.7 -0.71 47.38 -0.79 47.08 -0.93 C 46.79 -1.08 46.55 -1.29 46.34 -1.56 C 46.14 -1.83 45.98 -2.16 45.87 -2.55 C 45.76 -2.93 45.7 -3.37 45.7 -3.85 C 45.7 -4.32 45.76 -4.75 45.88 -5.13 C 45.99 -5.51 46.16 -5.84 46.37 -6.1 C 46.58 -6.37 46.83 -6.58 47.13 -6.72 C 47.42 -6.87 47.75 -6.94 48.12 -6.94 C 48.44 -6.94 48.73 -6.87 48.97 -6.75 C 49.22 -6.62 49.44 -6.45 49.64 -6.23 L 50.19 -6.85 C 49.97 -7.09 49.68 -7.31 49.33 -7.5 C 48.98 -7.69 48.57 -7.79 48.1 -7.79 C 47.62 -7.79 47.16 -7.7 46.75 -7.52 C 46.33 -7.33 45.97 -7.07 45.67 -6.73 C 45.36 -6.39 45.13 -5.97 44.96 -5.48 C 44.79 -4.99 44.7 -4.44 44.7 -3.83 Z M 54.16 -7.65 L 54.16 0 L 58.47 0 L 58.47 -0.83 L 55.13 -0.83 L 55.13 -7.65 Z M 59.83 -7.65 L 59.83 0 L 64.35 0 L 64.35 -0.83 L 60.79 -0.83 L 60.79 -3.6 L 63.7 -3.6 L 63.7 -4.43 L 60.79 -4.43 L 60.79 -6.83 L 64.23 -6.83 L 64.23 -7.65 Z M 69.22 -3.11 L 66.93 -3.11 L 67.29 -4.28 C 67.43 -4.71 67.56 -5.13 67.69 -5.56 C 67.81 -5.98 67.93 -6.41 68.05 -6.86 L 68.09 -6.86 C 68.22 -6.41 68.34 -5.98 68.47 -5.56 C 68.59 -5.13 68.72 -4.71 68.86 -4.28 Z M 69.47 -2.33 L 70.19 0 L 71.23 0 L 68.64 -7.65 L 67.55 -7.65 L 64.96 0 L 65.95 0 L 66.68 -2.33 Z M 73.28 -4.02 L 73.28 -6.87 L 74.57 -6.87 C 75.16 -6.87 75.62 -6.77 75.94 -6.57 C 76.26 -6.36 76.42 -6.01 76.42 -5.5 C 76.42 -5.01 76.26 -4.64 75.94 -4.39 C 75.62 -4.15 75.16 -4.02 74.57 -4.02 Z M 76.51 0 L 77.61 0 L 75.67 -3.34 C 76.19 -3.47 76.61 -3.71 76.92 -4.07 C 77.23 -4.43 77.39 -4.91 77.39 -5.5 C 77.39 -5.9 77.32 -6.24 77.19 -6.51 C 77.06 -6.78 76.87 -7 76.64 -7.17 C 76.4 -7.34 76.11 -7.47 75.78 -7.54 C 75.45 -7.61 75.09 -7.65 74.71 -7.65 L 72.31 -7.65 L 72.31 0 L 73.28 0 L 73.28 -3.23 L 74.67 -3.23 Z M 79.09 -7.65 L 79.09 0 L 80.01 0 L 80.01 -4 C 80.01 -4.4 80 -4.81 79.97 -5.21 C 79.94 -5.61 79.91 -6 79.88 -6.39 L 79.93 -6.39 L 80.76 -4.82 L 83.53 0 L 84.54 0 L 84.54 -7.65 L 83.62 -7.65 L 83.62 -3.7 C 83.62 -3.29 83.63 -2.88 83.66 -2.47 C 83.68 -2.05 83.71 -1.65 83.73 -1.26 L 83.69 -1.26 L 82.86 -2.85 L 80.09 -7.65 Z M 86.64 -7.65 L 86.64 0 L 87.6 0 L 87.6 -7.65 Z M 89.7 -7.65 L 89.7 0 L 90.62 0 L 90.62 -4 C 90.62 -4.4 90.61 -4.81 90.58 -5.21 C 90.56 -5.61 90.53 -6 90.5 -6.39 L 90.54 -6.39 L 91.37 -4.82 L 94.15 0 L 95.15 0 L 95.15 -7.65 L 94.23 -7.65 L 94.23 -3.7 C 94.23 -3.29 94.24 -2.88 94.27 -2.47 C 94.3 -2.05 94.32 -1.65 94.34 -1.26 L 94.3 -1.26 L 93.47 -2.85 L 90.71 -7.65 Z M 96.8 -3.83 C 96.8 -3.2 96.89 -2.65 97.06 -2.15 C 97.23 -1.66 97.47 -1.24 97.77 -0.9 C 98.08 -0.57 98.44 -0.31 98.86 -0.13 C 99.28 0.05 99.74 0.14 100.24 0.14 C 100.76 0.14 101.22 0.06 101.63 -0.11 C 102.03 -0.28 102.36 -0.49 102.61 -0.75 L 102.61 -3.97 L 100.1 -3.97 L 100.1 -3.16 L 101.73 -3.16 L 101.73 -1.17 C 101.57 -1.03 101.37 -0.92 101.13 -0.83 C 100.88 -0.75 100.62 -0.71 100.35 -0.71 C 99.94 -0.71 99.57 -0.79 99.26 -0.93 C 98.94 -1.08 98.68 -1.29 98.47 -1.56 C 98.25 -1.83 98.09 -2.16 97.98 -2.55 C 97.86 -2.93 97.81 -3.37 97.81 -3.85 C 97.81 -4.32 97.87 -4.75 97.99 -5.13 C 98.11 -5.51 98.28 -5.84 98.5 -6.1 C 98.71 -6.37 98.98 -6.58 99.29 -6.72 C 99.6 -6.87 99.95 -6.94 100.34 -6.94 C 100.73 -6.94 101.05 -6.87 101.3 -6.73 C 101.55 -6.6 101.78 -6.43 101.97 -6.23 L 102.52 -6.85 C 102.29 -7.08 102 -7.29 101.65 -7.49 C 101.3 -7.69 100.86 -7.79 100.33 -7.79 C 99.81 -7.79 99.34 -7.7 98.92 -7.52 C 98.49 -7.33 98.12 -7.07 97.8 -6.73 C 97.49 -6.39 97.24 -5.97 97.07 -5.48 C 96.89 -4.99 96.8 -4.44 96.8 -3.83 Z M 106.8 -7.65 L 106.8 0 L 107.77 0 L 107.77 -3.43 L 110.68 -3.43 L 110.68 -4.24 L 107.77 -4.24 L 107.77 -6.83 L 111.21 -6.83 L 111.21 -7.65 Z M 115.27 0.14 C 115.75 0.14 116.19 0.05 116.59 -0.14 C 116.99 -0.33 117.34 -0.59 117.63 -0.94 C 117.92 -1.28 118.14 -1.7 118.3 -2.2 C 118.46 -2.69 118.54 -3.25 118.54 -3.86 C 118.54 -4.47 118.46 -5.01 118.3 -5.5 C 118.14 -5.98 117.92 -6.4 117.63 -6.73 C 117.34 -7.07 116.99 -7.33 116.59 -7.52 C 116.19 -7.7 115.75 -7.79 115.27 -7.79 C 114.78 -7.79 114.34 -7.7 113.94 -7.52 C 113.54 -7.34 113.2 -7.08 112.91 -6.75 C 112.62 -6.41 112.4 -6 112.24 -5.51 C 112.08 -5.02 112 -4.47 112 -3.86 C 112 -3.25 112.08 -2.69 112.24 -2.2 C 112.4 -1.7 112.62 -1.28 112.91 -0.94 C 113.2 -0.59 113.54 -0.33 113.94 -0.14 C 114.34 0.05 114.78 0.14 115.27 0.14 Z M 115.27 -0.71 C 114.92 -0.71 114.61 -0.79 114.34 -0.93 C 114.06 -1.08 113.83 -1.29 113.63 -1.57 C 113.43 -1.84 113.28 -2.17 113.17 -2.56 C 113.06 -2.94 113 -3.38 113 -3.86 C 113 -4.33 113.06 -4.76 113.17 -5.14 C 113.28 -5.52 113.43 -5.85 113.63 -6.11 C 113.83 -6.38 114.06 -6.58 114.34 -6.72 C 114.61 -6.87 114.92 -6.94 115.27 -6.94 C 115.61 -6.94 115.92 -6.87 116.19 -6.72 C 116.47 -6.58 116.71 -6.38 116.9 -6.11 C 117.1 -5.85 117.26 -5.52 117.36 -5.14 C 117.47 -4.76 117.53 -4.33 117.53 -3.86 C 117.53 -3.38 117.47 -2.94 117.36 -2.56 C 117.26 -2.17 117.1 -1.84 116.9 -1.57 C 116.71 -1.29 116.47 -1.08 116.19 -0.93 C 115.92 -0.79 115.61 -0.71 115.27 -0.71 Z M 121.15 -4.02 L 121.15 -6.87 L 122.44 -6.87 C 123.04 -6.87 123.49 -6.77 123.81 -6.57 C 124.13 -6.36 124.29 -6.01 124.29 -5.5 C 124.29 -5.01 124.13 -4.64 123.81 -4.39 C 123.49 -4.15 123.04 -4.02 122.44 -4.02 Z M 124.38 0 L 125.48 0 L 123.55 -3.34 C 124.07 -3.47 124.48 -3.71 124.79 -4.07 C 125.1 -4.43 125.26 -4.91 125.26 -5.5 C 125.26 -5.9 125.19 -6.24 125.06 -6.51 C 124.93 -6.78 124.74 -7 124.51 -7.17 C 124.27 -7.34 123.99 -7.47 123.66 -7.54 C 123.33 -7.61 122.97 -7.65 122.58 -7.65 L 120.19 -7.65 L 120.19 0 L 121.15 0 L 121.15 -3.23 L 122.54 -3.23 Z M 129.32 -7.65 L 129.32 0 L 133.84 0 L 133.84 -0.83 L 130.29 -0.83 L 130.29 -3.6 L 133.19 -3.6 L 133.19 -4.43 L 130.29 -4.43 L 130.29 -6.83 L 133.73 -6.83 L 133.73 -7.65 Z M 134.41 -7.65 L 136.86 0 L 137.99 0 L 140.42 -7.65 L 139.43 -7.65 L 138.2 -3.52 C 138.07 -3.06 137.95 -2.64 137.84 -2.25 C 137.73 -1.86 137.61 -1.44 137.47 -0.99 L 137.42 -0.99 C 137.28 -1.44 137.15 -1.86 137.04 -2.25 C 136.94 -2.64 136.82 -3.06 136.68 -3.52 L 135.45 -7.65 Z M 141.47 -7.65 L 141.47 0 L 145.99 0 L 145.99 -0.83 L 142.44 -0.83 L 142.44 -3.6 L 145.34 -3.6 L 145.34 -4.43 L 142.44 -4.43 L 142.44 -6.83 L 145.88 -6.83 L 145.88 -7.65 Z M 148.58 -4.02 L 148.58 -6.87 L 149.87 -6.87 C 150.46 -6.87 150.92 -6.77 151.24 -6.57 C 151.56 -6.36 151.72 -6.01 151.72 -5.5 C 151.72 -5.01 151.56 -4.64 151.24 -4.39 C 150.92 -4.15 150.46 -4.02 149.87 -4.02 Z M 151.81 0 L 152.91 0 L 150.97 -3.34 C 151.49 -3.47 151.91 -3.71 152.22 -4.07 C 152.53 -4.43 152.69 -4.91 152.69 -5.5 C 152.69 -5.9 152.62 -6.24 152.49 -6.51 C 152.36 -6.78 152.17 -7 151.94 -7.17 C 151.7 -7.34 151.41 -7.47 151.08 -7.54 C 150.75 -7.61 150.39 -7.65 150.01 -7.65 L 147.62 -7.65 L 147.62 0 L 148.58 0 L 148.58 -3.23 L 149.97 -3.23 Z M 155.46 -2.96 L 155.46 0 L 156.44 0 L 156.44 -2.96 L 158.74 -7.65 L 157.73 -7.65 L 156.75 -5.49 C 156.63 -5.21 156.51 -4.94 156.37 -4.66 C 156.24 -4.39 156.11 -4.11 155.98 -3.83 L 155.93 -3.83 C 155.8 -4.11 155.67 -4.39 155.56 -4.66 C 155.44 -4.94 155.32 -5.21 155.2 -5.49 L 154.2 -7.65 L 153.17 -7.65 Z M 162.44 0.14 C 162.92 0.14 163.36 0.05 163.76 -0.14 C 164.16 -0.33 164.51 -0.59 164.8 -0.94 C 165.09 -1.28 165.32 -1.7 165.48 -2.2 C 165.63 -2.69 165.71 -3.25 165.71 -3.86 C 165.71 -4.47 165.63 -5.01 165.48 -5.5 C 165.32 -5.98 165.09 -6.4 164.8 -6.73 C 164.51 -7.07 164.16 -7.33 163.76 -7.52 C 163.36 -7.7 162.92 -7.79 162.44 -7.79 C 161.96 -7.79 161.51 -7.7 161.11 -7.52 C 160.71 -7.34 160.37 -7.08 160.08 -6.75 C 159.79 -6.41 159.57 -6 159.41 -5.51 C 159.25 -5.02 159.17 -4.47 159.17 -3.86 C 159.17 -3.25 159.25 -2.69 159.41 -2.2 C 159.57 -1.7 159.79 -1.28 160.08 -0.94 C 160.37 -0.59 160.71 -0.33 161.11 -0.14 C 161.51 0.05 161.96 0.14 162.44 0.14 Z M 162.44 -0.71 C 162.1 -0.71 161.79 -0.79 161.51 -0.93 C 161.23 -1.08 161 -1.29 160.8 -1.57 C 160.6 -1.84 160.45 -2.17 160.34 -2.56 C 160.23 -2.94 160.17 -3.38 160.17 -3.86 C 160.17 -4.33 160.23 -4.76 160.34 -5.14 C 160.45 -5.52 160.6 -5.85 160.8 -6.11 C 161 -6.38 161.23 -6.58 161.51 -6.72 C 161.79 -6.87 162.1 -6.94 162.44 -6.94 C 162.78 -6.94 163.09 -6.87 163.36 -6.72 C 163.64 -6.58 163.88 -6.38 164.08 -6.11 C 164.27 -5.85 164.43 -5.52 164.54 -5.14 C 164.65 -4.76 164.7 -4.33 164.7 -3.86 C 164.7 -3.38 164.65 -2.94 164.54 -2.56 C 164.43 -2.17 164.27 -1.84 164.08 -1.57 C 163.88 -1.29 163.64 -1.08 163.36 -0.93 C 163.09 -0.79 162.78 -0.71 162.44 -0.71 Z M 167.36 -7.65 L 167.36 0 L 168.28 0 L 168.28 -4 C 168.28 -4.4 168.27 -4.81 168.24 -5.21 C 168.21 -5.61 168.18 -6 168.15 -6.39 L 168.2 -6.39 L 169.03 -4.82 L 171.8 0 L 172.8 0 L 172.8 -7.65 L 171.88 -7.65 L 171.88 -3.7 C 171.88 -3.29 171.9 -2.88 171.92 -2.47 C 171.95 -2.05 171.98 -1.65 172 -1.26 L 171.95 -1.26 L 171.13 -2.85 L 168.36 -7.65 Z M 174.9 -7.65 L 174.9 0 L 179.43 0 L 179.43 -0.83 L 175.87 -0.83 L 175.87 -3.6 L 178.78 -3.6 L 178.78 -4.43 L 175.87 -4.43 L 175.87 -6.83 L 179.31 -6.83 L 179.31 -7.65 Z" stroke-linecap="round" />
</g>
</svg>