<?xml version="1.0" encoding="UTF-8"?>
<svg xmlns="http://www.w3.org/2000/svg" xmlns:xlink="http://www.w3.org/1999/xlink" version="1.1" width="1080" height="1080" viewBox="0 0 1080 1080" xml:space="preserve">
<desc>Created with Fabric.js 5.2.4</desc>
<defs>
</defs>
<rect x="0" y="0" width="100%" height="100%" fill="transparent"></rect>
<g transform="matrix(1 0 0 1 540 540)" id="c0719e97-8ac4-4ccd-b37e-038c7a21b71c"  >
</g>
<g transform="matrix(1 0 0 1 540 540)" id="c00bb9a7-5e34-4501-a976-1008ab1d92f7"  >
<rect style="stroke: none; stroke-width: 1; stroke-dasharray: none; stroke-linecap: butt; stroke-dashoffset: 0; stroke-linejoin: miter; stroke-miterlimit: 4; fill: rgb(255,255,255); fill-rule: nonzero; opacity: 1; visibility: hidden;" vector-effect="non-scaling-stroke"  x="-540" y="-540" rx="0" ry="0" width="1080" height="1080" />
</g>
<g transform="matrix(3.18 0 0 3.18 561.24 399.7)"  >
<rect style="stroke: none; stroke-width: 2; stroke-dasharray: none; stroke-linecap: butt; stroke-dashoffset: 0; stroke-linejoin: miter; stroke-miterlimit: 4; fill: rgb(51,51,51); fill-opacity: 0; fill-rule: nonzero; opacity: 1;" vector-effect="non-scaling-stroke"  x="-30" y="-25.99" rx="0" ry="0" width="60" height="51.98" />
</g>
<g transform="matrix(5.84 0 0 5.84 403.47 401.27)"  >
<path style="stroke: none; stroke-width: 1; stroke-dasharray: none; stroke-linecap: butt; stroke-dashoffset: 0; stroke-linejoin: miter; stroke-miterlimit: 4; fill: rgb(255,125,125); fill-rule: evenodd; opacity: 1;" vector-effect="non-scaling-stroke"  transform=" translate(-34.19, -49.67)" d="M 57.36 0 L 0 99.35 L 22.04 99.35 L 68.38 19.08999999999999 L 57.36 0 z" stroke-linecap="round" />
</g>
<g transform="matrix(5.84 0 0 5.84 639.73 488.79)"  >
<path style="stroke: none; stroke-width: 1; stroke-dasharray: none; stroke-linecap: butt; stroke-dashoffset: 0; stroke-linejoin: miter; stroke-miterlimit: 4; fill: rgb(249,209,68); fill-rule: evenodd; opacity: 1;" vector-effect="non-scaling-stroke"  transform=" translate(-74.69, -64.69)" d="M 34.69 99.35 L 56.76 99.35 L 85.74 49.14999999999999 L 74.7 30.04 L 34.69 99.35 z M 81.83 80.66999999999999 L 92.61 99.35 L 114.69 99.35 L 92.59 61.06999999999999 L 81.83 80.66999999999999 z" stroke-linecap="round" />
</g>
<g transform="matrix(5.84 0 0 5.84 647 654.46)"  >
<path style="stroke: none; stroke-width: 1; stroke-dasharray: none; stroke-linecap: butt; stroke-dashoffset: 0; stroke-linejoin: miter; stroke-miterlimit: 4; fill: rgb(255,125,125); fill-rule: evenodd; opacity: 1;" vector-effect="non-scaling-stroke"  transform=" translate(-75.97, -93.13)" d="M 82.17 93.13 C 82.1699185696462 95.650287690147 80.64899720423924 97.92142457603317 78.31859816693459 98.88115910946782 C 75.98819912962995 99.84089364290246 73.3089891009175 99.2995082199081 71.5340827735373 97.51021853493164 C 69.75917644615711 95.72092884995517 69.23943227521755 93.03743661949159 70.2179439525496 90.71485939901811 C 71.19645562988165 88.39228217854465 73.47979373889129 86.88974045395648 76 86.91 C 79.43292793513139 86.91550590947007 82.21449409052993 89.6970720648686 82.22 93.13" stroke-linecap="round" />
</g>
<g transform="matrix(5.84 0 0 5.84 540.02 807.16)"  >
<path style="stroke: none; stroke-width: 1; stroke-dasharray: none; stroke-linecap: butt; stroke-dashoffset: 0; stroke-linejoin: miter; stroke-miterlimit: 4; fill: rgb(249,209,68); fill-rule: nonzero; opacity: 1;" vector-effect="non-scaling-stroke"  transform=" translate(-88.33, 13.48)" d="M 26.45 0 L 14.22 -27.27 L 11.92 -27.27 L -0.31 0 L 1.95 0 L 4.91 -6.7 L 21.19 -6.7 L 24.19 0 Z M 5.73 -8.65 L 13.05 -25.25 L 20.38 -8.65 Z M 29.18 -19.25 L 29.18 0 L 31.09 0 L 31.09 -11.22 C 31.09 -14.73 33.86 -17.61 37.44 -17.65 C 38.57 -17.65 39.7 -17.38 40.71 -16.75 L 41.57 -18.31 C 40.29 -19.09 38.88 -19.48 37.44 -19.44 C 34.99 -19.44 32.26 -18.43 31.05 -15.82 L 30.97 -19.25 Z M 61.05 -19.25 L 61.05 -15.04 C 59.45 -18.04 56.3 -19.48 53.18 -19.48 C 47.81 -19.48 43.4 -15.51 43.4 -9.62 C 43.4 -3.74 47.81 0.31 53.18 0.31 C 56.3 0.31 59.18 -1.09 61.05 -4.09 L 61.05 0 L 62.96 0 C 62.96 -6.43 62.96 -12.82 62.96 -19.25 Z M 53.18 -17.65 C 63.9 -17.65 63.9 -1.56 53.18 -1.56 C 48.82 -1.56 45.31 -4.79 45.31 -9.62 C 45.31 -14.45 48.82 -17.65 53.18 -17.65 Z M 76.83 -17.73 C 81.27 -17.73 84.7 -14.45 84.7 -9.66 C 84.7 -4.87 81.35 -1.56 76.83 -1.56 C 72.51 -1.56 68.96 -4.29 68.96 -9.62 C 68.96 -15.04 72.51 -17.73 76.83 -17.73 Z M 84.74 -27.27 L 84.74 -15.04 C 83.18 -18.16 80.06 -19.56 76.75 -19.56 C 71.38 -19.56 67.09 -15.97 67.09 -9.62 C 67.09 -3.23 71.34 0.31 76.71 0.31 C 79.99 0.31 83.14 -1.32 84.74 -4.25 L 84.74 0 L 86.61 0 L 86.61 -27.27 Z M 101.22 0.27 C 104.3 0.27 107.65 -0.97 109.52 -3.43 L 108.16 -4.52 C 106.71 -2.61 103.75 -1.6 101.22 -1.6 C 97.25 -1.6 93.78 -4.21 93.39 -8.73 L 110.73 -8.73 C 111.47 -16.25 106.64 -19.56 101.22 -19.56 C 95.81 -19.56 91.44 -15.39 91.44 -9.62 C 91.44 -3.51 95.81 0.27 101.22 0.27 Z M 93.39 -10.4 C 93.82 -15.12 97.25 -17.81 101.22 -17.81 C 105.86 -17.81 108.97 -15.16 109.01 -10.4 Z M 145.71 0 L 145.71 -11.53 C 145.71 -16.32 142.36 -19.64 137.65 -19.64 C 134.69 -19.64 131.69 -18.04 130.52 -14.88 C 129.39 -18.31 126.31 -19.64 123.39 -19.64 C 120.9 -19.64 118.44 -18.58 117.12 -16.05 L 117.08 -19.25 L 115.29 -19.25 L 115.29 0 L 117.19 0 L 117.19 -11.42 C 117.19 -15.12 119.69 -17.81 123.35 -17.81 C 127.01 -17.81 129.55 -15.12 129.55 -11.42 L 129.55 0 L 131.45 0 L 131.45 -11.42 C 131.45 -15.12 133.99 -17.84 137.65 -17.84 C 141.31 -17.84 143.81 -15.23 143.81 -11.53 L 143.81 0 Z M 153 -19.32 L 153 0 L 151.09 0 L 151.09 -19.32 Z M 150.55 -25.52 C 150.55 -23.49 153.62 -23.49 153.62 -25.52 C 153.62 -27.55 150.55 -27.55 150.55 -25.52 Z M 175.05 -19.25 L 175.05 -15.04 C 173.45 -18.04 170.3 -19.48 167.18 -19.48 C 161.81 -19.48 157.4 -15.51 157.4 -9.62 C 157.4 -3.74 161.81 0.31 167.18 0.31 C 170.3 0.31 173.18 -1.09 175.05 -4.09 L 175.05 0 L 176.96 0 C 176.96 -6.43 176.96 -12.82 176.96 -19.25 Z M 167.18 -17.65 C 177.9 -17.65 177.9 -1.56 167.18 -1.56 C 162.82 -1.56 159.31 -4.79 159.31 -9.62 C 159.31 -14.45 162.82 -17.65 167.18 -17.65 Z" stroke-linecap="round" />
</g>
</svg> 