<svg xmlns="http://www.w3.org/2000/svg" xmlns:xlink="http://www.w3.org/1999/xlink" version="1.1" width="1080" height="1080" viewBox="0 0 1080 1080" xml:space="preserve">
<desc>Created with Fabric.js 5.2.4</desc>
<defs>
</defs>
<g transform="matrix(1 0 0 1 540 540)" id="a55512e6-de86-4894-99ae-167d6d3a04e3">
</g>
<g transform="matrix(1 0 0 1 540 540)" id="87973331-1e75-44bc-8637-fa121bac48df">
<rect style="stroke: none; stroke-width: 1; stroke-dasharray: none; stroke-linecap: butt; stroke-dashoffset: 0; stroke-linejoin: miter; stroke-miterlimit: 4; fill: rgb(255,255,255); fill-rule: nonzero; opacity: 1; visibility: hidden;" vector-effect="non-scaling-stroke" x="-540" y="-540" rx="0" ry="0" width="1080" height="1080"/>
</g>
<g transform="matrix(1 0 0 1 50 50)">
<rect style="stroke: none; stroke-width: 1; stroke-dasharray: none; stroke-linecap: butt; stroke-dashoffset: 0; stroke-linejoin: miter; stroke-miterlimit: 4; fill: rgb(255,255,255); fill-opacity: 0; fill-rule: nonzero; opacity: 1;" vector-effect="non-scaling-stroke" x="-50" y="-50" rx="0" ry="0" width="100" height="100"/>
</g>
<g transform="matrix(1 0 0 1 540 540)" id="c00bb9a7-5e34-4501-a976-1008ab1d92f7">
<rect style="stroke: none; stroke-width: 1; stroke-dasharray: none; stroke-linecap: butt; stroke-dashoffset: 0; stroke-linejoin: miter; stroke-miterlimit: 4; fill: rgb(255,255,255); fill-rule: nonzero; opacity: 1; visibility: hidden;" vector-effect="non-scaling-stroke" x="-540" y="-540" rx="0" ry="0" width="1080" height="1080"/>
</g>
<g transform="matrix(3.18 0 0 3.18 561.24 399.7)">
<rect style="stroke: none; stroke-width: 2; stroke-dasharray: none; stroke-linecap: butt; stroke-dashoffset: 0; stroke-linejoin: miter; stroke-miterlimit: 4; fill: rgb(51,51,51); fill-opacity: 0; fill-rule: nonzero; opacity: 1;" vector-effect="non-scaling-stroke" x="-30" y="-25.99" rx="0" ry="0" width="60" height="51.98"/>
</g>
<g transform="matrix(8.78 0 0 8.78 336.82 540)">
<path style="stroke: none; stroke-width: 1; stroke-dasharray: none; stroke-linecap: butt; stroke-dashoffset: 0; stroke-linejoin: miter; stroke-miterlimit: 4; fill: rgb(255,125,125); fill-rule: evenodd; opacity: 1;" vector-effect="non-scaling-stroke" transform=" translate(-34.19, -49.67)" d="M 57.36 0 L 0 99.35 L 22.04 99.35 L 68.38 19.08999999999999 L 57.36 0 z" stroke-linecap="round"/>
</g>
<g transform="matrix(8.78 0 0 8.78 692.17 671.71)">
<path style="stroke: none; stroke-width: 1; stroke-dasharray: none; stroke-linecap: butt; stroke-dashoffset: 0; stroke-linejoin: miter; stroke-miterlimit: 4; fill: rgb(249,209,68); fill-rule: evenodd; opacity: 1;" vector-effect="non-scaling-stroke" transform=" translate(-74.69, -64.69)" d="M 34.69 99.35 L 56.76 99.35 L 85.74 49.14999999999999 L 74.7 30.04 L 34.69 99.35 z M 81.83 80.66999999999999 L 92.61 99.35 L 114.69 99.35 L 92.59 61.06999999999999 L 81.83 80.66999999999999 z" stroke-linecap="round"/>
</g>
<g transform="matrix(8.78 0 0 8.78 703.29 920.99)">
<path style="stroke: none; stroke-width: 1; stroke-dasharray: none; stroke-linecap: butt; stroke-dashoffset: 0; stroke-linejoin: miter; stroke-miterlimit: 4; fill: rgb(255,125,125); fill-rule: evenodd; opacity: 1;" vector-effect="non-scaling-stroke" transform=" translate(-75.97, -93.13)" d="M 82.17 93.13 C 82.1699185696462 95.650287690147 80.64899720423924 97.92142457603317 78.31859816693459 98.88115910946782 C 75.98819912962995 99.84089364290246 73.3089891009175 99.2995082199081 71.5340827735373 97.51021853493164 C 69.75917644615711 95.72092884995517 69.23943227521755 93.03743661949159 70.2179439525496 90.71485939901811 C 71.19645562988165 88.39228217854465 73.47979373889129 86.88974045395648 76 86.91 C 79.43292793513139 86.91550590947007 82.21449409052993 89.6970720648686 82.22 93.13" stroke-linecap="round"/>
</g>
</svg>